# xmcd
# Track frame offsets:
# 150
# 18501
# 33563
# 46743
# 58721
# 85890
# 95908
# 120237
# 131407
# 145054
#
# Disc length: 2205 seconds
# Revision: 0
# Processed by: cddbd v1.5.2PL0 Copyright (c) Steve Scherf et al.
# Submitted via: VisiTrax 2.11.1.266 - For more info visit www.synapsa.com
#
DISCID=80089b0a
DTITLE=Stringybark Mcdowell - Simple Songs Of Everyday Stuff!  &That
DYEAR=2009
DGENRE=Blues
TTITLE0=Drop That Frown
TTITLE1=Lifes Highway
TTITLE2=2 Faced Mama
TTITLE3=Get Over It
TTITLE4=Witch Doctor
TTITLE5=Champ
TTITLE6=Stretched On Your Grave - Stairway To Heaven
TTITLE7=When The Sun Shone
TTITLE8=Kyleeee
TTITLE9=Visions
EXTD=
EXTT0=
EXTT1=
EXTT2=
EXTT3=
EXTT4=
EXTT5=
EXTT6=
EXTT7=
EXTT8=
EXTT9=
PLAYORDER=
